<svg xmlns="http://www.w3.org/2000/svg" xmlns:xlink="http://www.w3.org/1999/xlink" version="1.1" x="0px" y="0px" viewBox="0 0 170 170" style="enable-background:new 0 0 170 170;" xml:space="preserve"><g><path d="M139.525,142.648H31.775V72.582h-7v73.567c0,1.933,1.567,3.5,3.5,3.5h114.75c1.933,0,3.5-1.567,3.5-3.5V72.582h-7V142.648z   "/><path d="M67.449,69.343L56.292,82.452c-1.113,1.308-1.113,3.229,0,4.537l15.846,18.619l-9.226,10.841l5.331,4.537L79.4,107.877   c1.113-1.308,1.113-3.229,0-4.537L63.554,84.721L72.78,73.88L67.449,69.343z"/><path d="M85.226,69.343L74.069,82.452c-1.113,1.308-1.113,3.229,0,4.537l15.847,18.619l-9.226,10.841l5.331,4.537l11.157-13.109   c1.113-1.308,1.113-3.229,0-4.537L81.331,84.721l9.226-10.841L85.226,69.343z"/><path d="M103.002,69.343L91.846,82.452c-1.113,1.308-1.113,3.229,0,4.537l15.846,18.619l-9.226,10.841l5.331,4.537l11.157-13.109   c1.113-1.308,1.113-3.229,0-4.537L99.107,84.721l9.226-10.841L103.002,69.343z"/><path d="M86.701,20.792c-1.058-0.588-2.344-0.588-3.401,0L4.999,64.324L8.4,70.442L85,27.856l76.6,42.586l3.401-6.118   L86.701,20.792z"/></g></svg>