<svg xmlns="http://www.w3.org/2000/svg" xmlns:xlink="http://www.w3.org/1999/xlink" xml:space="preserve" version="1.1" style="shape-rendering:geometricPrecision;text-rendering:geometricPrecision;image-rendering:optimizeQuality;" viewBox="0 0 385 385" x="0px" y="0px" fill-rule="evenodd" clip-rule="evenodd"><defs><style type="text/css">
   
    .fil0 {fill:black;fill-rule:nonzero}
   
  </style></defs><g><path class="fil0" d="M358 194c0,-7 6,-13 13,-13 8,0 14,6 14,13 0,106 -86,193 -193,193 -106,0 -192,-87 -192,-193 0,-106 86,-192 192,-192 51,0 99,20 135,55l6 -45c1,-8 8,-13 15,-12 8,1 13,8 12,15l-10 74c-1,8 -8,13 -16,12l-74 -10c-7,-1 -12,-8 -11,-16 1,-7 8,-12 15,-11l36 5c-30,-26 -68,-40 -108,-40 -91,0 -165,74 -165,165 0,91 74,165 165,165 92,0 166,-74 166,-165z"/><path class="fil0" d="M179 99c0,-8 6,-14 13,-14 8,0 14,6 14,14l0 90 44 43c5,6 5,14 0,19 -6,6 -14,6 -20,0l-47 -47c-3,-3 -4,-6 -4,-10l0 -95z"/></g></svg>