<svg xmlns="http://www.w3.org/2000/svg" xmlns:xlink="http://www.w3.org/1999/xlink" version="1.1" x="0px" y="0px" viewBox="0 0 200 200" style="enable-background:new 0 0 200 200;" xml:space="preserve"><path d="M100,12c48.6,0,88,39.4,88,88s-39.4,88-88,88s-88-39.4-88-88S51.4,12,100,12 M100,0C44.8,0,0,44.8,0,100  s44.8,100,100,100s100-44.8,100-100S155.2,0,100,0z"/><path d="M128,40c-3.5,0-6.6,2.3-7.6,5.6c-0.1,0.2-0.2,0.5-0.2,0.8l-21.9,78L75.4,72.9c-0.1-0.2-0.2-0.5-0.3-0.7  c-1.4-2.6-4.1-4.2-7-4.2c-2.6,0-5.1,1.3-6.6,3.4c0,0.1,0,0.2,0,0.2L47.7,92H28c-4.4,0-8,3.6-8,8s3.6,8,8,8h24c2.6,0,5.1-1.3,6.6-3.4  v-0.3l8-11.8l26,58.6c0.1,0.2,0.2,0.5,0.3,0.7c2.1,3.9,7,5.3,10.8,3.2c1.8-1,3.2-2.7,3.8-4.7l21.6-77l11.2,29  c0.1,0.3,0.2,0.5,0.3,0.8c1.3,3,4.1,4.9,7.4,4.9h24c4.4,0,8-3.6,8-8s-3.6-8-8-8h-18.5l-17.8-46.4c-0.1-0.3-0.2-0.5-0.3-0.8  C134.1,41.9,131.2,40,128,40z"/></svg>