<?xml version="1.0" encoding="utf-8"?>
<!-- Generator: Adobe Illustrator 21.0.2, SVG Export Plug-In . SVG Version: 6.00 Build 0)  -->
<svg version="1.1" id="Layer_1" xmlns="http://www.w3.org/2000/svg" xmlns:xlink="http://www.w3.org/1999/xlink" x="0px" y="0px"
	 viewBox="0 0 60 60" style="enable-background:new 0 0 60 60;" xml:space="preserve">
<style type="text/css">
	.st0{fill:none;}
	.st1{fill:#000000;}
</style>
<rect class="st0" width="60" height="60"/>
<title>icon-device</title>
<desc>Created with Sketch.</desc>
<g id="CDT-1640">
	<g id="icon-device" transform="translate(-3109.000000, -1065.000000)">
		<g transform="translate(3109.000000, 1065.000000)">
			<g id="a0c444b8-0a53-4253-b9f7-e304fb50cb4e" transform="translate(17.600000, 0.000000)">
				<path id="Shape" class="st1" d="M13.6,13c0,0.1,0,0.2-0.1,0.3c-0.1,0.1-0.2,0.1-0.3,0.1h-1.8c-0.1,0-0.2,0-0.3-0.1
					c-0.1-0.1-0.1-0.2-0.1-0.3l0,0V1.5c0-0.1,0-0.2,0.1-0.3c0.1-0.1,0.2-0.1,0.3-0.1h1.8c0.1,0,0.2,0,0.3,0.1
					c0.1,0.1,0.1,0.2,0.1,0.3l0,0V13L13.6,13z"/>
				<path id="Shape_1_" class="st1" d="M3.9,13c0,0.1,0,0.2-0.1,0.3c-0.1,0.1-0.2,0.1-0.3,0.1H1.7c-0.1,0-0.2,0-0.3-0.1
					s-0.1-0.2-0.1-0.3l0,0V1.5c0-0.1,0-0.2,0.1-0.3s0.2-0.1,0.3-0.1h1.8c0.1,0,0.2,0,0.3,0.1c0.1,0.1,0.1,0.2,0.1,0.3l0,0L3.9,13
					L3.9,13L3.9,13z"/>
				<path id="Shape_2_" class="st1" d="M23.5,12.9c0,0.2-0.2,0.4-0.4,0.4h-1.8c-0.2,0-0.4-0.2-0.4-0.4l0,0V1.4
					c0-0.2,0.2-0.4,0.4-0.4h1.8c0.2,0,0.4,0.2,0.4,0.4l0,0V12.9L23.5,12.9z"/>
			</g>
			<g id="_6aa02637-ba5c-495d-bcb7-754d62cd11c1" transform="translate(17.600000, 46.400000)">
				<path id="Shape_3_" class="st1" d="M23.5,12.1c0,0.2-0.2,0.4-0.4,0.4h-1.8c-0.2,0-0.4-0.2-0.4-0.4l0,0V0.6
					c0-0.2,0.2-0.4,0.4-0.4h1.8c0.2,0,0.4,0.2,0.4,0.4l0,0V12.1L23.5,12.1z"/>
				<path id="Shape_4_" class="st1" d="M3.9,12.2c0,0.1,0,0.2-0.1,0.3c-0.1,0.1-0.2,0.1-0.3,0.1H1.7c-0.1,0-0.2,0-0.3-0.1
					c-0.1-0.1-0.1-0.2-0.1-0.3l0,0V0.7c0-0.1,0-0.2,0.1-0.3c0.1-0.1,0.2-0.1,0.3-0.1h1.8c0.1,0,0.2,0,0.3,0.1
					c0.1,0.1,0.1,0.2,0.1,0.3l0,0L3.9,12.2L3.9,12.2L3.9,12.2z"/>
				<path id="Shape_5_" class="st1" d="M13.6,12.2c0,0.1,0,0.2-0.1,0.3c-0.1,0.1-0.2,0.1-0.3,0.1h-1.8c-0.1,0-0.2,0-0.3-0.1
					c-0.1-0.1-0.1-0.2-0.1-0.3l0,0V0.7c0-0.1,0-0.2,0.1-0.3c0.1-0.1,0.2-0.1,0.3-0.1h1.8c0.1,0,0.2,0,0.3,0.1
					c0.1,0.1,0.1,0.2,0.1,0.3l0,0V12.2z"/>
			</g>
			<g id="a301855f-ebea-4e52-9608-ceac4e1ca904" transform="translate(0.000000, 17.600000)">
				<path id="Shape_6_" class="st1" d="M14.1,13.6c0,0.1,0,0.2-0.1,0.3C13.9,14,13.8,14,13.7,14H2.2c-0.1,0-0.2,0-0.3-0.1
					s-0.1-0.2-0.1-0.3l0,0v-1.8c0-0.1,0-0.2,0.1-0.3c0.1-0.1,0.2-0.1,0.3-0.1h11.5c0.1,0,0.2,0,0.3,0.1c0.1,0.1,0.1,0.2,0.1,0.3l0,0
					V13.6L14.1,13.6L14.1,13.6z"/>
				<path id="Shape_7_" class="st1" d="M14.1,23.3c0,0.1,0,0.2-0.1,0.3c-0.1,0.1-0.2,0.1-0.3,0.1H2.2c-0.1,0-0.2,0-0.3-0.1
					s-0.1-0.2-0.1-0.3l0,0v-1.8c0-0.1,0-0.2,0.1-0.3c0.1-0.1,0.2-0.1,0.3-0.1h11.5c0.1,0,0.2,0,0.3,0.1c0.1,0.1,0.1,0.2,0.1,0.3l0,0
					V23.3L14.1,23.3z"/>
				<path id="Shape_8_" class="st1" d="M13.8,1.3c0.2,0,0.4,0.2,0.4,0.4l0,0v1.8c0,0.2-0.2,0.4-0.4,0.4H2.3c-0.2,0-0.4-0.2-0.4-0.4
					l0,0V1.7c0-0.2,0.2-0.4,0.4-0.4H13.8L13.8,1.3z"/>
			</g>
			<path id="b632e38d-66ce-4977-b64f-71223ab79429" class="st1" d="M12.3,12.1V48h35.4V12.1H12.3z M30,37.4c-3.9,0-7.1-3.2-7.1-7.1
				s3.2-7.1,7.1-7.1s7.1,3.2,7.1,7.1c0,1.9-0.7,3.7-2.1,5C33.6,36.7,31.8,37.4,30,37.4L30,37.4L30,37.4z"/>
			<g id="e2b4239c-caa9-4c4c-adae-b5562b256e35" transform="translate(45.600000, 18.400000)">
				<path id="Shape_9_" class="st1" d="M12.5,12.8c0,0.1,0,0.2-0.1,0.3c-0.1,0.1-0.2,0.1-0.3,0.1H0.6c-0.1,0-0.2,0-0.3-0.1
					c-0.1-0.1-0.1-0.2-0.1-0.3l0,0v-1.8c0-0.1,0-0.2,0.1-0.3c0.1-0.1,0.2-0.1,0.3-0.1h11.5c0.1,0,0.2,0,0.3,0.1
					c0.1,0.1,0.1,0.2,0.1,0.3l0,0V12.8L12.5,12.8z"/>
				<path id="Shape_10_" class="st1" d="M12.5,3.1c0,0.1,0,0.2-0.1,0.3c-0.1,0.1-0.2,0.1-0.3,0.1H0.6c-0.1,0-0.2,0-0.3-0.1
					C0.2,3.3,0.2,3.2,0.2,3.1l0,0V1.3c0-0.1,0-0.2,0.1-0.3s0.2-0.1,0.3-0.1h11.5c0.1,0,0.2,0,0.3,0.1c0.1,0.1,0.1,0.2,0.1,0.3l0,0
					V3.1L12.5,3.1z"/>
				<path id="Shape_11_" class="st1" d="M0.7,22.6c-0.2,0-0.4-0.2-0.4-0.4l0,0v-1.8c0-0.2,0.2-0.4,0.4-0.4h11.5
					c0.2,0,0.4,0.2,0.4,0.4l0,0v1.8c0,0.2-0.2,0.4-0.4,0.4L0.7,22.6L0.7,22.6L0.7,22.6z"/>
			</g>
		</g>
	</g>
</g>
</svg>
